<svg width="249" height="52" viewBox="0 0 249 52" xmlns="http://www.w3.org/2000/svg"><title>chive</title><g fill="none" fill-rule="evenodd"><g fill="#252525"><path d="M147.065 1.005v50.492h-8.825V30.29h-17.326v21.207h-8.954V1.005h8.954V21.54h17.326V9.824h-8.308v-8.82h17.133zM167.162 9.824v32.92h8.31v8.753h-25.509v-8.752h8.31V9.825h-8.31V1.07H175.47v8.754h-8.31zM220.434 1.005l-34.01 50.492h-8.118V1.004H195.506V9.69h-8.246v25.178h.064l22.16-33.863h10.95zM222.687.937h26.024v8.82h-17.07v12.32h9.664v8.75h-9.663v11.917h17.07v8.752h-26.023V.936z"/></g><path d="M32.132 50.913v-13.72c0-1.68-.293-2.826-.878-3.44-.584-.615-1.55-.922-2.902-.922-.72 0-1.363.142-1.933.428-.57.285-1.05.675-1.44 1.17-.392.495-.683 1.064-.878 1.71-.195.644-.293 1.342-.293 2.09v12.687h-5.85v-30.23h5.85l-.013 10.977c.21-.48.53-.938.965-1.372.433-.434.933-.803 1.503-1.103.568-.3 1.195-.54 1.885-.72.687-.18 1.407-.27 2.155-.27 2.274 0 4.122.624 5.543 1.867 1.42 1.245 2.132 2.977 2.132 5.196v15.654h-5.848zM45.716 41.376c.09 1.68.576 3.014 1.462 4.004.884.99 2.046 1.484 3.486 1.484.96 0 1.805-.216 2.54-.652.735-.434 1.207-1.04 1.417-1.82h6.03c-.69 2.28-1.89 4.033-3.6 5.262-1.71 1.23-3.747 1.844-6.116 1.844-7.38 0-11.067-4.018-11.067-12.055 0-1.71.24-3.254.72-4.633.48-1.38 1.175-2.564 2.092-3.554.914-.99 2.03-1.747 3.35-2.27 1.32-.526 2.834-.788 4.544-.788 3.42 0 6.004 1.094 7.76 3.284 1.755 2.19 2.63 5.488 2.63 9.896H45.717v-.002zm9.22-3.69c-.03-.808-.17-1.52-.426-2.135-.255-.612-.592-1.124-1.012-1.528-.42-.405-.9-.704-1.438-.9-.54-.195-1.096-.292-1.664-.292-1.17 0-2.184.427-3.038 1.28-.855.856-1.343 2.048-1.46 3.577h9.04zM6.133 23.162H.315v28.335h5.683l9.872-9.67-4.125-4.26-5.612 5.612v-9.74h9.535v-4.395H6.133v-5.883z" fill="#252525"/><path d="M99.095 15.988c-1.653-2.01-3.54-3.584-5.663-4.724-2.12-1.14-4.52-1.707-7.202-1.707-2.235 0-4.3.468-6.196 1.406-1.9.94-3.553 2.19-4.96 3.753-1.406 1.564-2.512 3.34-3.317 5.326-.802 1.988-1.205 4.053-1.205 6.197 0 2.19.412 4.3 1.24 6.33.826 2.034 1.962 3.83 3.417 5.395 1.45 1.564 3.148 2.813 5.09 3.75 1.943.94 4.03 1.41 6.263 1.41 2.59 0 4.835-.55 6.734-1.643 1.898-1.094 3.675-2.58 5.327-4.456h10.452c-.937 2.19-2.177 4.176-3.718 5.963-1.54 1.786-3.306 3.305-5.292 4.555-1.988 1.25-4.12 2.222-6.4 2.914-2.28.692-4.58 1.037-6.9 1.037-3.484 0-6.756-.67-9.816-2.01-3.06-1.34-5.728-3.17-8.007-5.493-2.277-2.32-4.076-5.025-5.393-8.107-1.318-3.082-1.977-6.343-1.977-9.78 0-3.396.66-6.602 1.977-9.616 1.317-3.015 3.116-5.65 5.393-7.905 2.28-2.255 4.925-4.042 7.94-5.36 3.014-1.317 6.242-1.977 9.68-1.977 2.46 0 4.85.347 7.172 1.04 2.32.692 4.464 1.674 6.43 2.947 1.966 1.273 3.74 2.814 5.327 4.623 1.586 1.81 2.87 3.853 3.852 6.13h-10.25z" fill="#66B245"/></g></svg>