<svg id="Layer_1" xmlns="http://www.w3.org/2000/svg" viewBox="-928 538.5 334.1 69.5"><style>.st0{fill:#336699;} .st1{fill:#FFFFFF;} .st2{fill:#CC6666;}</style><title>cnest</title><g id="Page-1"><g id="cnest"><path id="Shape_1_" class="st0" d="M-880.2 538.9c8.3-1.4 18.4-.6 24.2 5.9 2 2.2 4.4 4 6.9 5.6 7.1 4.6 9.2 14.1 5.5 21.2-3.2 6.2-9 11-15.5 14.3-4.5 2.3-9.8 2.8-14 5.4-7.8 4.8-17.5 6.4-26.7 5.2-6-1.4-11.6-4.8-15.3-9.4-4.3-5.3-3.3-12.5-1.4-18.5 4.5-11 16-18 27.7-21.8 8.8-2.8 18.4-1.9 27.5-1.1-6.6-4.5-15.4-4.1-23.1-3.1-11.4 3.1-22.7 8.4-29.7 17.5-4.3 5.7-8.5 12.3-7.7 19.5.4 6.7 4.5 13 10.5 16.8 8 4.2 17.5 4.7 26.5 3.9 13.7-1.6 26.5-7.9 36-17 3-3 4.9-6.8 7.2-10.2-.8 5.4-4.4 9.9-8.1 14-6.8 7.6-16.1 13-26.1 16.4-7.1 2.5-14.5 4.9-22.2 4.6-9.2-.6-19.2-2.8-25.1-9.8-6.1-6.3-5.5-15.6-3.3-23.3 2.5-8.6 9.2-15.3 16.2-21.2 8.4-7.2 18.9-12.4 30-14.9z"/><path id="Shape_2_" class="st1" d="M-886.4 547.8c9.4-2 19.2-1.2 28.4 1.3.9 1 1.8 2 2.8 3-.5 0-1.6-.1-2.1-.1-1.3 2.9-3.2 5.7-5.1 8.3-5.4-2.7-11.6-3.4-17.6-2.8-.2-1-.5-1.9-.8-2.9 1.4-.3 2.9-.6 4.3-.9-1.5-.3-3.1-.5-4.6-.7-.1-2-.2-4-.5-5.9-2.4 1.4-1.6 4-1.8 6.1-5.9 1.4-11.4 4-16.5 7.1-.8-1.4-1.7-2.8-2.6-4.2 4.8-3.5 10-7 16.1-8.3z"/><path id="Shape_3_" class="st1" d="M-861.5 561c2.2-2.8 4.2-5.8 6.6-8.5 2.1 6 2.5 12.9-1.6 18.2-1.9.7-3.9 1.2-5.8 1.7l5.1.6c-4 5.6-8.7 10.7-13.8 15.5-4.4.6-9.8 2.5-13.7-.6-6.2-5.1-4.6-15.6 2.6-19.3 2.7-1.4 6.3-1.9 9.2-.7 1.8 1.3 2.7 3.3 4 5.1 1.2-1.4 2.9-2.5 3.3-4.2-.1-2.6-2.2-5.2-5.3-5.4-6.6-.6-12.6 3-16.8 7.3-3.8 3.9-7.3 9-6.1 14.5.5 3.3 3.7 5.8 7.2 6.2 3.7.5 7.5 0 11.1-.6-6 3.2-13.4 3.8-20.1 2.2-5.6-1.6-9.6-6-12.5-10.5 2.9 1.9 5.5 4.4 8.6 6.2-1.6-2-3.4-3.9-5.2-5.6 3.6-.8 7.4-1.7 10.2-4.2-3.7 1.2-7.4 2.3-11.3 2.8-2.6-6.7 1-13.6 5.7-18.6.9.9 1.9 1.7 2.8 2.7-2.2 2.8-4.2 6-4.1 9.6 1.9-2.7 3.6-5.5 5.4-8.2.8.5 1.7 1 2.5 1.5-.5-.8-.9-1.7-1.4-2.6 4.3-2.7 9-4.7 14-6.1.3.5 1 1.5 1.3 2-.8-2.8 2.1-2.3 3.7-2.6 4.1-.4 8 .6 11.8 2-.5.9-.9 1.9-1.4 2.8l2.7-1.8c1.1 1.5 2.2 2.9 3.3 4.4.1-2.1-.8-4.1-2-5.8z"/><path id="Shape_4_" class="st1" d="M-851.4 553c5.1 4.9 6.8 12.4 4 18.7-2.8 7.9-11 12.7-19.1 15.3 4.6-4.6 8.6-9.6 12.1-14.9 2.1-1.2 4.2-2.6 5-4.8-1.3.7-2.6 1.5-3.8 2.3 2.4-5.2 2.9-11 1.8-16.6z"/><path id="Shape_5_" class="st2" d="M-744.1 555.5c2.4-.6 4.9-1.1 7.3-1.7-2.4 12.8-4.8 25.4-7.2 38.1-2.1.1-4.2.1-6.3.2-.2-.3-.5-.7-.7-.9-4 1.4-8.7 2.1-12.7.3-3.5-1.7-5.1-5.5-4.9-9.1-.1-7.2 4.6-14.6 12.2-16.9 3.4-1.2 7.1-.6 10.5.2.5-3.4 1.1-6.8 1.8-10.2z"/><path id="Shape_6_" class="st1" d="M-898.6 562.2c4.8-2.9 9.9-5.6 15.4-7.3.4 1.1.9 2.2 1.3 3.3-5.2 1.5-10.1 3.6-14.4 6.5-.8-.9-1.6-1.7-2.3-2.5z"/><path id="Shape_7_" class="st0" d="M-698.9 555.6c.9 0 2.6-.1 3.5-.1 4.8 7.2 9.4 14.4 14.2 21.6 1.4-7.2 2.8-14.4 4.1-21.6h7c-2.4 12.3-4.7 24.6-7 36.9-.8 0-2.3.1-3.1.1-4.9-7.5-9.6-15.1-14.5-22.7-1.4 7.3-2.8 14.8-4.2 22.1h-7c2.3-12 4.7-24.2 7-36.3z"/><path id="Shape_8_" class="st1" d="M-910.7 569.5c1-4.8 4.4-8.6 6.9-12.8.7 1.6 1.4 3.2 2.2 4.8-2.8 2.8-5.5 6.1-6.4 9.9-1.3 3.7-.3 7.4.4 11.1-3.3-3.6-4.2-8.6-3.1-13z"/><path id="Shape_9_" class="st0" d="M-607.5 559.9c2.5-.8 4.9-1.6 7.4-2.3-.5 2.7-1 5.2-1.5 7.9h7.8l-.9 5.1h-7.9c-.6 5.1-2.8 10.2-2.1 15.4 2 2.2 5.5.6 8 .3-.4 2-.8 4-1.3 6-3.5.3-7.1.9-10.5-.1-3-.9-4.2-4.1-3.8-6.8.7-5 1.8-9.9 2.7-14.8h-3.4c.3-1.7.7-3.4 1-5.1h3.3c.4-1.9.8-3.8 1.2-5.6z"/><path id="Shape_10_" class="st2" d="M-887.7 570.6c4.2-4.3 10.2-7.9 16.8-7.3 3 .1 5.1 2.8 5.3 5.4-.4 1.7-2.2 2.8-3.3 4.2-1.3-1.7-2.2-3.8-4-5.1-2.9-1.2-6.4-.6-9.2.7-7.2 3.7-8.8 14.1-2.6 19.3 3.8 3 9.2 1.1 13.7.6-1.4.9-2.8 1.8-4.4 2.5-3.7.6-7.4 1-11.1.6-3.5-.5-6.7-2.9-7.2-6.2-1.3-5.7 2.1-10.8 6-14.7z"/><path id="Shape_11_" class="st2" d="M-821.2 568.3c5.7-4.1 14.2-4.9 20.4-1.1-1.2 1.7-2.5 3.2-3.8 4.9-2.6-1.1-5.4-2.5-8.3-1.7-5.6 1.2-8.4 7.2-7.9 12 .2 2.3 2.4 4.2 4.8 4.5 3.3.8 6.5-.7 9.4-1.9l1.5 5.1c-4.9 2.3-10.8 3.2-16.2 1.7-3.7-1-6.4-4.2-6.8-7.7-.6-5.8 1.7-12.2 6.9-15.8z"/><path id="Shape_12_" class="st2" d="M-788.5 565.5c4.4-1.3 9.6-1.1 13.3 1.5 3.9 3 4 8.4 3 12.6-1.2 6-6 11.6-12.7 12.7-5.2 1-12 0-14.2-5.1-3.3-8.1 1.4-18.8 10.6-21.7z"/><path id="Shape_13_" class="st2" d="M-726.6 566c5.5-2.3 13.5-1.9 16.9 3.2 2.4 3.5 1.4 7.8.2 11.5-7 0-14-.1-21 0 .7 2 .8 4.7 3.2 5.5 3.8 1.8 8 .3 11.6-1.3.6 1.7 1.1 3.3 1.7 5-4.8 2.2-10.4 3-15.7 1.9-3.6-.7-6.7-3.6-7.3-7-1.7-7.2 2.6-15.6 10.4-18.8z"/><path id="Shape_14_" class="st0" d="M-664.9 570.4c3.8-4.2 10.2-6.5 16.1-5.4 4.1.6 7.5 3.6 8.3 7.3.8 2.8-.3 5.7-1.1 8.5-7 0-14-.1-20.9.1.6 1.8.6 4.1 2.6 5.2 3.8 2.2 8.4.8 12.1-.9.6 1.7 1.2 3.3 1.8 5-4.8 2.3-10.4 3-15.7 1.9-4-.8-7.2-4.1-7.5-7.9-.6-4.9.8-10.1 4.3-13.8z"/><path id="Shape_15_" class="st0" d="M-632.2 566.5c4.8-2.7 10.8-1.9 15.8 0-.9 1.7-1.9 3.2-2.8 4.9-3.1-1.1-7.2-2.7-9.9.1-.2 3.9 5 4.1 7.5 6 5.1 2.6 4 9.6-.2 12.4-5.1 3.7-12.6 3.2-18.1.6 1.1-1.7 2.2-3.5 3.3-5.2 2.6 1.1 5.6 2.8 8.6 1.8 2.1-.4 3.2-3 1.7-4.5-2.9-2.3-7.2-2.9-9.4-6.2-2-3.3-.1-8 3.5-9.9z"/><path id="Shape_16_" class="st1" d="M-787.5 570.8c2.3-1.2 5.6-1.2 7.4.7 1.9 2.5 1.2 5.7.6 8.5-.9 3.6-4 7.4-8.4 7.2-2.9.1-5-2.3-4.9-4.8-.1-4.1 1.1-9.2 5.3-11.6z"/><path id="Shape_17_" class="st1" d="M-754.6 570.8c2.3-.9 5-.6 7.2.6-.2 4-1.2 8-1.9 11.9-.3 5.4-10.7 4.9-11.7 0-1.1-4.8 1.2-10.7 6.4-12.5z"/><path id="Shape_18_" class="st1" d="M-729.2 575.7c2-3 5-6.2 9.3-5.4 3.3-.1 4.3 3 5.3 5.3-4.9.2-9.7.2-14.6.1z"/><path id="Shape_19_" class="st1" d="M-661.2 575.7c2-3.4 5.8-6.5 10.3-5.2 2.8.3 3.3 3.2 4.2 5.2-4.8.1-9.7.1-14.5 0z"/></g></g></svg>